<?xml version="1.0" encoding="UTF-8" standalone="no"?>
<!DOCTYPE svg PUBLIC "-//W3C//DTD SVG 1.1//EN"
 "http://www.w3.org/Graphics/SVG/1.1/DTD/svg11.dtd">
<!-- Generated by graphviz version 2.40.1 (20161225.0304)
 -->
<!-- Title: dependencies Pages: 1 -->
<svg width="691pt" height="284pt"
 viewBox="0.00 0.00 691.00 284.00" xmlns="http://www.w3.org/2000/svg" xmlns:xlink="http://www.w3.org/1999/xlink">
<g id="graph0" class="graph" transform="scale(1 1) rotate(0) translate(4 280)">
<title>dependencies</title>
<polygon fill="#ffffff" stroke="transparent" points="-4,4 -4,-280 687,-280 687,4 -4,4"/>
<text text-anchor="start" x="320.5091" y="-42.4" font-family="sans-serif" font-weight="bold" font-size="14.00" fill="#000000">Legend</text>
<polygon fill="#ffffb3" stroke="transparent" points="107.5,-10 107.5,-30 127.5,-30 127.5,-10 107.5,-10"/>
<text text-anchor="start" x="131.129" y="-15.4" font-family="sans-serif" font-size="14.00" fill="#000000"> &#160;Declarations</text>
<polygon fill="#8dd3c7" stroke="transparent" points="220.5,-10 220.5,-30 240.5,-30 240.5,-10 220.5,-10"/>
<text text-anchor="start" x="244.2251" y="-15.4" font-family="sans-serif" font-size="14.00" fill="#000000"> &#160;Module</text>
<polygon fill="#80b1d3" stroke="transparent" points="306.5,-10 306.5,-30 326.5,-30 326.5,-10 306.5,-10"/>
<text text-anchor="start" x="330.2812" y="-15.4" font-family="sans-serif" font-size="14.00" fill="#000000"> &#160;Bootstrap</text>
<polygon fill="#fdb462" stroke="transparent" points="403.5,-10 403.5,-30 423.5,-30 423.5,-10 403.5,-10"/>
<text text-anchor="start" x="427.1732" y="-15.4" font-family="sans-serif" font-size="14.00" fill="#000000"> &#160;Providers</text>
<polygon fill="#fb8072" stroke="transparent" points="499.5,-10 499.5,-30 519.5,-30 519.5,-10 499.5,-10"/>
<text text-anchor="start" x="523.2258" y="-15.4" font-family="sans-serif" font-size="14.00" fill="#000000"> &#160;Exports</text>
<g id="clust1" class="cluster">
<title>cluster_WeatherModule</title>
<polygon fill="none" stroke="#000000" stroke-dasharray="1,5" points="8,-70 8,-268 675,-268 675,-70 8,-70"/>
</g>
<g id="clust2" class="cluster">
<title>cluster_WeatherModule_declarations</title>
<polygon fill="none" stroke="#000000" points="138,-78 138,-130 667,-130 667,-78 138,-78"/>
</g>
<g id="clust6" class="cluster">
<title>cluster_WeatherModule_imports</title>
<polygon fill="none" stroke="#000000" points="16,-78 16,-130 130,-130 130,-78 16,-78"/>
</g>
<g id="clust7" class="cluster">
<title>cluster_WeatherModule_exports</title>
<polygon fill="none" stroke="#000000" points="225,-208 225,-260 395,-260 395,-208 225,-208"/>
</g>
<!-- WeatherCardComponent -->
<g id="node1" class="node">
<title>WeatherCardComponent</title>
<polygon fill="#ffffb3" stroke="#000000" points="658.9538,-122 503.0462,-122 503.0462,-86 658.9538,-86 658.9538,-122"/>
<text text-anchor="middle" x="581" y="-99.8" font-family="Times,serif" font-size="14.00" fill="#000000">WeatherCardComponent</text>
</g>
<!-- WeatherModule -->
<g id="node4" class="node">
<title>WeatherModule</title>
<polygon fill="#8dd3c7" stroke="#000000" points="363.4594,-187 360.4594,-191 339.4594,-191 336.4594,-187 256.5406,-187 256.5406,-151 363.4594,-151 363.4594,-187"/>
<text text-anchor="middle" x="310" y="-164.8" font-family="Times,serif" font-size="14.00" fill="#000000">WeatherModule</text>
</g>
<!-- WeatherCardComponent&#45;&gt;WeatherModule -->
<g id="edge1" class="edge">
<title>WeatherCardComponent&#45;&gt;WeatherModule</title>
<path fill="none" stroke="#000000" d="M581,-122.1061C581,-141.3391 581,-169 581,-169 581,-169 373.5409,-169 373.5409,-169"/>
<polygon fill="#000000" stroke="#000000" points="373.5409,-165.5001 363.5409,-169 373.5408,-172.5001 373.5409,-165.5001"/>
</g>
<!-- WeatherHistoryComponent -->
<g id="node2" class="node">
<title>WeatherHistoryComponent</title>
<polygon fill="#ffffb3" stroke="#000000" points="485.2352,-122 314.7648,-122 314.7648,-86 485.2352,-86 485.2352,-122"/>
<text text-anchor="middle" x="400" y="-99.8" font-family="Times,serif" font-size="14.00" fill="#000000">WeatherHistoryComponent</text>
</g>
<!-- WeatherHistoryComponent&#45;&gt;WeatherModule -->
<g id="edge2" class="edge">
<title>WeatherHistoryComponent&#45;&gt;WeatherModule</title>
<path fill="none" stroke="#000000" d="M339.0561,-122.1061C339.0561,-122.1061 339.0561,-140.991 339.0561,-140.991"/>
<polygon fill="#000000" stroke="#000000" points="335.5562,-140.9909 339.0561,-150.991 342.5562,-140.991 335.5562,-140.9909"/>
</g>
<!-- WeatherListComponent -->
<g id="node3" class="node">
<title>WeatherListComponent</title>
<polygon fill="#ffffb3" stroke="#000000" points="296.0212,-122 145.9788,-122 145.9788,-86 296.0212,-86 296.0212,-122"/>
<text text-anchor="middle" x="221" y="-99.8" font-family="Times,serif" font-size="14.00" fill="#000000">WeatherListComponent</text>
</g>
<!-- WeatherListComponent&#45;&gt;WeatherModule -->
<g id="edge3" class="edge">
<title>WeatherListComponent&#45;&gt;WeatherModule</title>
<path fill="none" stroke="#000000" d="M276.3903,-122.1061C276.3903,-122.1061 276.3903,-140.991 276.3903,-140.991"/>
<polygon fill="#000000" stroke="#000000" points="272.8903,-140.9909 276.3903,-150.991 279.8903,-140.991 272.8903,-140.9909"/>
</g>
<!-- WeatherListComponent  -->
<g id="node6" class="node">
<title>WeatherListComponent </title>
<polygon fill="#fb8072" stroke="#000000" points="387.0204,-252 232.9796,-252 232.9796,-216 387.0204,-216 387.0204,-252"/>
<text text-anchor="middle" x="310" y="-229.8" font-family="Times,serif" font-size="14.00" fill="#000000">WeatherListComponent </text>
</g>
<!-- WeatherModule&#45;&gt;WeatherListComponent  -->
<g id="edge5" class="edge">
<title>WeatherModule&#45;&gt;WeatherListComponent </title>
<path fill="none" stroke="#000000" stroke-dasharray="5,2" d="M310,-187.1061C310,-187.1061 310,-205.991 310,-205.991"/>
<polygon fill="#000000" stroke="#000000" points="306.5001,-205.9909 310,-215.991 313.5001,-205.991 306.5001,-205.9909"/>
</g>
<!-- SharedModule -->
<g id="node5" class="node">
<title>SharedModule</title>
<polygon fill="#8dd3c7" stroke="#000000" points="122.4231,-122 119.4231,-126 98.4231,-126 95.4231,-122 23.5769,-122 23.5769,-86 122.4231,-86 122.4231,-122"/>
<text text-anchor="middle" x="73" y="-99.8" font-family="Times,serif" font-size="14.00" fill="#000000">SharedModule</text>
</g>
<!-- SharedModule&#45;&gt;WeatherModule -->
<g id="edge4" class="edge">
<title>SharedModule&#45;&gt;WeatherModule</title>
<path fill="none" stroke="#000000" d="M73,-122.1061C73,-141.3391 73,-169 73,-169 73,-169 246.5171,-169 246.5171,-169"/>
<polygon fill="#000000" stroke="#000000" points="246.5171,-172.5001 256.5171,-169 246.517,-165.5001 246.5171,-172.5001"/>
</g>
</g>
</svg>
