<?xml version="1.0" encoding="UTF-8" standalone="no"?>
<!DOCTYPE svg PUBLIC "-//W3C//DTD SVG 1.1//EN"
 "http://www.w3.org/Graphics/SVG/1.1/DTD/svg11.dtd">
<!-- Generated by graphviz version 2.40.1 (20161225.0304)
 -->
<!-- Title: dependencies Pages: 1 -->
<svg width="535pt" height="284pt"
 viewBox="0.00 0.00 535.00 284.00" xmlns="http://www.w3.org/2000/svg" xmlns:xlink="http://www.w3.org/1999/xlink">
<g id="graph0" class="graph" transform="scale(1 1) rotate(0) translate(4 280)">
<title>dependencies</title>
<polygon fill="#ffffff" stroke="transparent" points="-4,4 -4,-280 531,-280 531,4 -4,4"/>
<text text-anchor="start" x="242.5091" y="-42.4" font-family="sans-serif" font-weight="bold" font-size="14.00" fill="#000000">Legend</text>
<polygon fill="#ffffb3" stroke="transparent" points="29.5,-10 29.5,-30 49.5,-30 49.5,-10 29.5,-10"/>
<text text-anchor="start" x="53.129" y="-15.4" font-family="sans-serif" font-size="14.00" fill="#000000"> &#160;Declarations</text>
<polygon fill="#8dd3c7" stroke="transparent" points="142.5,-10 142.5,-30 162.5,-30 162.5,-10 142.5,-10"/>
<text text-anchor="start" x="166.2251" y="-15.4" font-family="sans-serif" font-size="14.00" fill="#000000"> &#160;Module</text>
<polygon fill="#80b1d3" stroke="transparent" points="228.5,-10 228.5,-30 248.5,-30 248.5,-10 228.5,-10"/>
<text text-anchor="start" x="252.2812" y="-15.4" font-family="sans-serif" font-size="14.00" fill="#000000"> &#160;Bootstrap</text>
<polygon fill="#fdb462" stroke="transparent" points="325.5,-10 325.5,-30 345.5,-30 345.5,-10 325.5,-10"/>
<text text-anchor="start" x="349.1732" y="-15.4" font-family="sans-serif" font-size="14.00" fill="#000000"> &#160;Providers</text>
<polygon fill="#fb8072" stroke="transparent" points="421.5,-10 421.5,-30 441.5,-30 441.5,-10 421.5,-10"/>
<text text-anchor="start" x="445.2258" y="-15.4" font-family="sans-serif" font-size="14.00" fill="#000000"> &#160;Exports</text>
<g id="clust1" class="cluster">
<title>cluster_AppModule</title>
<polygon fill="none" stroke="#000000" stroke-dasharray="1,5" points="8,-70 8,-268 519,-268 519,-70 8,-70"/>
</g>
<g id="clust2" class="cluster">
<title>cluster_AppModule_declarations</title>
<polygon fill="none" stroke="#000000" points="263,-78 263,-130 511,-130 511,-78 263,-78"/>
</g>
<g id="clust5" class="cluster">
<title>cluster_AppModule_imports</title>
<polygon fill="none" stroke="#000000" points="16,-78 16,-130 255,-130 255,-78 16,-78"/>
</g>
<g id="clust7" class="cluster">
<title>cluster_AppModule_bootstrap</title>
<polygon fill="none" stroke="#000000" points="199,-208 199,-260 323,-260 323,-208 199,-208"/>
</g>
<!-- AppComponent -->
<g id="node1" class="node">
<title>AppComponent</title>
<polygon fill="#ffffb3" stroke="#000000" points="502.9399,-122 397.0601,-122 397.0601,-86 502.9399,-86 502.9399,-122"/>
<text text-anchor="middle" x="450" y="-99.8" font-family="Times,serif" font-size="14.00" fill="#000000">AppComponent</text>
</g>
<!-- AppModule -->
<g id="node3" class="node">
<title>AppModule</title>
<polygon fill="#8dd3c7" stroke="#000000" points="302.6571,-187 299.6571,-191 278.6571,-191 275.6571,-187 219.3429,-187 219.3429,-151 302.6571,-151 302.6571,-187"/>
<text text-anchor="middle" x="261" y="-164.8" font-family="Times,serif" font-size="14.00" fill="#000000">AppModule</text>
</g>
<!-- AppComponent&#45;&gt;AppModule -->
<g id="edge1" class="edge">
<title>AppComponent&#45;&gt;AppModule</title>
<path fill="none" stroke="#000000" d="M450,-122.1061C450,-141.3391 450,-169 450,-169 450,-169 312.9452,-169 312.9452,-169"/>
<polygon fill="#000000" stroke="#000000" points="312.9453,-165.5001 302.9452,-169 312.9452,-172.5001 312.9453,-165.5001"/>
</g>
<!-- BaseComponent -->
<g id="node2" class="node">
<title>BaseComponent</title>
<polygon fill="#ffffb3" stroke="#000000" points="379.0438,-122 270.9562,-122 270.9562,-86 379.0438,-86 379.0438,-122"/>
<text text-anchor="middle" x="325" y="-99.8" font-family="Times,serif" font-size="14.00" fill="#000000">BaseComponent</text>
</g>
<!-- BaseComponent&#45;&gt;AppModule -->
<g id="edge2" class="edge">
<title>BaseComponent&#45;&gt;AppModule</title>
<path fill="none" stroke="#000000" d="M286.7784,-122.1061C286.7784,-122.1061 286.7784,-140.991 286.7784,-140.991"/>
<polygon fill="#000000" stroke="#000000" points="283.2785,-140.9909 286.7784,-150.991 290.2785,-140.991 283.2785,-140.9909"/>
</g>
<!-- AppComponent  -->
<g id="node6" class="node">
<title>AppComponent </title>
<polygon fill="#80b1d3" stroke="#000000" points="315.439,-252 206.561,-252 206.561,-216 315.439,-216 315.439,-252"/>
<text text-anchor="middle" x="261" y="-229.8" font-family="Times,serif" font-size="14.00" fill="#000000">AppComponent </text>
</g>
<!-- AppModule&#45;&gt;AppComponent  -->
<g id="edge5" class="edge">
<title>AppModule&#45;&gt;AppComponent </title>
<path fill="none" stroke="#000000" stroke-dasharray="1,5" d="M261,-187.1061C261,-187.1061 261,-205.991 261,-205.991"/>
<polygon fill="#000000" stroke="#000000" points="257.5001,-205.9909 261,-215.991 264.5001,-205.991 257.5001,-205.9909"/>
</g>
<!-- SharedModule -->
<g id="node4" class="node">
<title>SharedModule</title>
<polygon fill="#8dd3c7" stroke="#000000" points="247.4231,-122 244.4231,-126 223.4231,-126 220.4231,-122 148.5769,-122 148.5769,-86 247.4231,-86 247.4231,-122"/>
<text text-anchor="middle" x="198" y="-99.8" font-family="Times,serif" font-size="14.00" fill="#000000">SharedModule</text>
</g>
<!-- SharedModule&#45;&gt;AppModule -->
<g id="edge3" class="edge">
<title>SharedModule&#45;&gt;AppModule</title>
<path fill="none" stroke="#000000" d="M233.1915,-122.1061C233.1915,-122.1061 233.1915,-140.991 233.1915,-140.991"/>
<polygon fill="#000000" stroke="#000000" points="229.6915,-140.9909 233.1915,-150.991 236.6915,-140.991 229.6915,-140.9909"/>
</g>
<!-- WeatherModule -->
<g id="node5" class="node">
<title>WeatherModule</title>
<polygon fill="#8dd3c7" stroke="#000000" points="130.4594,-122 127.4594,-126 106.4594,-126 103.4594,-122 23.5406,-122 23.5406,-86 130.4594,-86 130.4594,-122"/>
<text text-anchor="middle" x="77" y="-99.8" font-family="Times,serif" font-size="14.00" fill="#000000">WeatherModule</text>
</g>
<!-- WeatherModule&#45;&gt;AppModule -->
<g id="edge4" class="edge">
<title>WeatherModule&#45;&gt;AppModule</title>
<path fill="none" stroke="#000000" d="M77,-122.1061C77,-141.3391 77,-169 77,-169 77,-169 209.2476,-169 209.2476,-169"/>
<polygon fill="#000000" stroke="#000000" points="209.2476,-172.5001 219.2476,-169 209.2475,-165.5001 209.2476,-172.5001"/>
</g>
</g>
</svg>
