<?xml version="1.0" encoding="UTF-8" standalone="no"?>
<!DOCTYPE svg PUBLIC "-//W3C//DTD SVG 1.1//EN"
 "http://www.w3.org/Graphics/SVG/1.1/DTD/svg11.dtd">
<!-- Generated by graphviz version 2.40.1 (20161225.0304)
 -->
<!-- Title: dependencies Pages: 1 -->
<svg width="1443pt" height="360pt"
 viewBox="0.00 0.00 1443.00 360.00" xmlns="http://www.w3.org/2000/svg" xmlns:xlink="http://www.w3.org/1999/xlink">
<g id="graph0" class="graph" transform="scale(1 1) rotate(0) translate(4 356)">
<title>dependencies</title>
<polygon fill="#ffffff" stroke="transparent" points="-4,4 -4,-356 1439,-356 1439,4 -4,4"/>
<text text-anchor="start" x="696.5091" y="-42.4" font-family="sans-serif" font-weight="bold" font-size="14.00" fill="#000000">Legend</text>
<polygon fill="#ffffb3" stroke="transparent" points="483.5,-10 483.5,-30 503.5,-30 503.5,-10 483.5,-10"/>
<text text-anchor="start" x="507.129" y="-15.4" font-family="sans-serif" font-size="14.00" fill="#000000"> &#160;Declarations</text>
<polygon fill="#8dd3c7" stroke="transparent" points="596.5,-10 596.5,-30 616.5,-30 616.5,-10 596.5,-10"/>
<text text-anchor="start" x="620.2251" y="-15.4" font-family="sans-serif" font-size="14.00" fill="#000000"> &#160;Module</text>
<polygon fill="#80b1d3" stroke="transparent" points="682.5,-10 682.5,-30 702.5,-30 702.5,-10 682.5,-10"/>
<text text-anchor="start" x="706.2812" y="-15.4" font-family="sans-serif" font-size="14.00" fill="#000000"> &#160;Bootstrap</text>
<polygon fill="#fdb462" stroke="transparent" points="779.5,-10 779.5,-30 799.5,-30 799.5,-10 779.5,-10"/>
<text text-anchor="start" x="803.1732" y="-15.4" font-family="sans-serif" font-size="14.00" fill="#000000"> &#160;Providers</text>
<polygon fill="#fb8072" stroke="transparent" points="875.5,-10 875.5,-30 895.5,-30 895.5,-10 875.5,-10"/>
<text text-anchor="start" x="899.2258" y="-15.4" font-family="sans-serif" font-size="14.00" fill="#000000"> &#160;Exports</text>
<g id="clust1" class="cluster">
<title>cluster_AppModule</title>
<polygon fill="none" stroke="#000000" stroke-dasharray="1,5" points="739,-70 739,-344 1147,-344 1147,-70 739,-70"/>
</g>
<g id="clust2" class="cluster">
<title>cluster_AppModule_declarations</title>
<polygon fill="none" stroke="#000000" points="891,-154 891,-206 1139,-206 1139,-154 891,-154"/>
</g>
<g id="clust5" class="cluster">
<title>cluster_AppModule_imports</title>
<polygon fill="none" stroke="#000000" points="747,-78 747,-206 869,-206 869,-78 747,-78"/>
</g>
<g id="clust7" class="cluster">
<title>cluster_AppModule_bootstrap</title>
<polygon fill="none" stroke="#000000" points="854,-284 854,-336 978,-336 978,-284 854,-284"/>
</g>
<g id="clust15" class="cluster">
<title>cluster_SharedModule</title>
<polygon fill="none" stroke="#000000" stroke-dasharray="1,5" points="1155,-146 1155,-214 1427,-214 1427,-146 1155,-146"/>
</g>
<g id="clust17" class="cluster">
<title>cluster_SharedModule_imports</title>
<polygon fill="none" stroke="#000000" points="1297,-154 1297,-206 1419,-206 1419,-154 1297,-154"/>
</g>
<g id="clust18" class="cluster">
<title>cluster_SharedModule_exports</title>
<polygon fill="none" stroke="#000000" points="1163,-154 1163,-206 1289,-206 1289,-154 1163,-154"/>
</g>
<g id="clust21" class="cluster">
<title>cluster_WeatherModule</title>
<polygon fill="none" stroke="#000000" stroke-dasharray="1,5" points="8,-70 8,-138 731,-138 731,-70 8,-70"/>
</g>
<g id="clust22" class="cluster">
<title>cluster_WeatherModule_declarations</title>
<polygon fill="none" stroke="#000000" points="194,-78 194,-130 723,-130 723,-78 194,-78"/>
</g>
<g id="clust27" class="cluster">
<title>cluster_WeatherModule_exports</title>
<polygon fill="none" stroke="#000000" points="16,-78 16,-130 186,-130 186,-78 16,-78"/>
</g>
<!-- AppComponent -->
<g id="node1" class="node">
<title>AppComponent</title>
<polygon fill="#ffffb3" stroke="#000000" points="1130.9399,-198 1025.0601,-198 1025.0601,-162 1130.9399,-162 1130.9399,-198"/>
<text text-anchor="middle" x="1078" y="-175.8" font-family="Times,serif" font-size="14.00" fill="#000000">AppComponent</text>
</g>
<!-- AppModule -->
<g id="node3" class="node">
<title>AppModule</title>
<polygon fill="#8dd3c7" stroke="#000000" points="957.6571,-263 954.6571,-267 933.6571,-267 930.6571,-263 874.3429,-263 874.3429,-227 957.6571,-227 957.6571,-263"/>
<text text-anchor="middle" x="916" y="-240.8" font-family="Times,serif" font-size="14.00" fill="#000000">AppModule</text>
</g>
<!-- AppComponent&#45;&gt;AppModule -->
<g id="edge1" class="edge">
<title>AppComponent&#45;&gt;AppModule</title>
<path fill="none" stroke="#000000" d="M1078,-198.1061C1078,-217.3391 1078,-245 1078,-245 1078,-245 967.719,-245 967.719,-245"/>
<polygon fill="#000000" stroke="#000000" points="967.7191,-241.5001 957.719,-245 967.719,-248.5001 967.7191,-241.5001"/>
</g>
<!-- BaseComponent -->
<g id="node2" class="node">
<title>BaseComponent</title>
<polygon fill="#ffffb3" stroke="#000000" points="1007.0438,-198 898.9562,-198 898.9562,-162 1007.0438,-162 1007.0438,-198"/>
<text text-anchor="middle" x="953" y="-175.8" font-family="Times,serif" font-size="14.00" fill="#000000">BaseComponent</text>
</g>
<!-- BaseComponent&#45;&gt;AppModule -->
<g id="edge2" class="edge">
<title>BaseComponent&#45;&gt;AppModule</title>
<path fill="none" stroke="#000000" d="M928.2784,-198.1061C928.2784,-198.1061 928.2784,-216.991 928.2784,-216.991"/>
<polygon fill="#000000" stroke="#000000" points="924.7785,-216.9909 928.2784,-226.991 931.7785,-216.991 924.7785,-216.9909"/>
</g>
<!-- AppComponent  -->
<g id="node6" class="node">
<title>AppComponent </title>
<polygon fill="#80b1d3" stroke="#000000" points="970.439,-328 861.561,-328 861.561,-292 970.439,-292 970.439,-328"/>
<text text-anchor="middle" x="916" y="-305.8" font-family="Times,serif" font-size="14.00" fill="#000000">AppComponent </text>
</g>
<!-- AppModule&#45;&gt;AppComponent  -->
<g id="edge5" class="edge">
<title>AppModule&#45;&gt;AppComponent </title>
<path fill="none" stroke="#000000" stroke-dasharray="1,5" d="M916,-263.1061C916,-263.1061 916,-281.991 916,-281.991"/>
<polygon fill="#000000" stroke="#000000" points="912.5001,-281.9909 916,-291.991 919.5001,-281.991 912.5001,-281.9909"/>
</g>
<!-- SharedModule -->
<g id="node4" class="node">
<title>SharedModule</title>
<polygon fill="#8dd3c7" stroke="#000000" points="861.4231,-122 858.4231,-126 837.4231,-126 834.4231,-122 762.5769,-122 762.5769,-86 861.4231,-86 861.4231,-122"/>
<text text-anchor="middle" x="812" y="-99.8" font-family="Times,serif" font-size="14.00" fill="#000000">SharedModule</text>
</g>
<!-- SharedModule&#45;&gt;AppModule -->
<g id="edge3" class="edge">
<title>SharedModule&#45;&gt;AppModule</title>
<path fill="none" stroke="#000000" d="M861.2965,-113C877.077,-113 890.543,-113 890.543,-113 890.543,-113 890.543,-216.9227 890.543,-216.9227"/>
<polygon fill="#000000" stroke="#000000" points="887.0431,-216.9227 890.543,-226.9227 894.0431,-216.9228 887.0431,-216.9227"/>
</g>
<!-- WeatherModule -->
<g id="node5" class="node">
<title>WeatherModule</title>
<polygon fill="#8dd3c7" stroke="#000000" points="861.4594,-198 858.4594,-202 837.4594,-202 834.4594,-198 754.5406,-198 754.5406,-162 861.4594,-162 861.4594,-198"/>
<text text-anchor="middle" x="808" y="-175.8" font-family="Times,serif" font-size="14.00" fill="#000000">WeatherModule</text>
</g>
<!-- SharedModule&#45;&gt;WeatherModule -->
<g id="edge11" class="edge">
<title>SharedModule&#45;&gt;WeatherModule</title>
<path fill="none" stroke="#000000" d="M812,-122.0109C812,-122.0109 812,-151.855 812,-151.855"/>
<polygon fill="#000000" stroke="#000000" points="808.5001,-151.8549 812,-161.855 815.5001,-151.855 808.5001,-151.8549"/>
</g>
<!-- MaterialModule  -->
<g id="node8" class="node">
<title>MaterialModule </title>
<polygon fill="#fb8072" stroke="#000000" points="1281.4716,-198 1170.5284,-198 1170.5284,-162 1281.4716,-162 1281.4716,-198"/>
<text text-anchor="middle" x="1226" y="-175.8" font-family="Times,serif" font-size="14.00" fill="#000000">MaterialModule </text>
</g>
<!-- SharedModule&#45;&gt;MaterialModule  -->
<g id="edge7" class="edge">
<title>SharedModule&#45;&gt;MaterialModule </title>
<path fill="none" stroke="#000000" stroke-dasharray="5,2" d="M861.5269,-104C971.4158,-104 1226,-104 1226,-104 1226,-104 1226,-151.9891 1226,-151.9891"/>
<polygon fill="#000000" stroke="#000000" points="1222.5001,-151.989 1226,-161.9891 1229.5001,-151.9891 1222.5001,-151.989"/>
</g>
<!-- WeatherModule&#45;&gt;AppModule -->
<g id="edge4" class="edge">
<title>WeatherModule&#45;&gt;AppModule</title>
<path fill="none" stroke="#000000" d="M861.6447,-180C873.3702,-180 882.3574,-180 882.3574,-180 882.3574,-180 882.3574,-216.8939 882.3574,-216.8939"/>
<polygon fill="#000000" stroke="#000000" points="878.8575,-216.8938 882.3574,-226.8939 885.8575,-216.8939 878.8575,-216.8938"/>
</g>
<!-- WeatherListComponent  -->
<g id="node12" class="node">
<title>WeatherListComponent </title>
<polygon fill="#fb8072" stroke="#000000" points="178.0204,-122 23.9796,-122 23.9796,-86 178.0204,-86 178.0204,-122"/>
<text text-anchor="middle" x="101" y="-99.8" font-family="Times,serif" font-size="14.00" fill="#000000">WeatherListComponent </text>
</g>
<!-- WeatherModule&#45;&gt;WeatherListComponent  -->
<g id="edge12" class="edge">
<title>WeatherModule&#45;&gt;WeatherListComponent </title>
<path fill="none" stroke="#000000" stroke-dasharray="5,2" d="M754.2798,-189C589.2909,-189 101,-189 101,-189 101,-189 101,-132.0263 101,-132.0263"/>
<polygon fill="#000000" stroke="#000000" points="104.5001,-132.0263 101,-122.0263 97.5001,-132.0263 104.5001,-132.0263"/>
</g>
<!-- MaterialModule -->
<g id="node7" class="node">
<title>MaterialModule</title>
<polygon fill="#8dd3c7" stroke="#000000" points="1411.4706,-198 1408.4706,-202 1387.4706,-202 1384.4706,-198 1304.5294,-198 1304.5294,-162 1411.4706,-162 1411.4706,-198"/>
<text text-anchor="middle" x="1358" y="-175.8" font-family="Times,serif" font-size="14.00" fill="#000000">MaterialModule</text>
</g>
<!-- MaterialModule&#45;&gt;SharedModule -->
<g id="edge6" class="edge">
<title>MaterialModule&#45;&gt;SharedModule</title>
<path fill="none" stroke="#000000" d="M1358,-161.9737C1358,-137.0227 1358,-95 1358,-95 1358,-95 871.4168,-95 871.4168,-95"/>
<polygon fill="#000000" stroke="#000000" points="871.4169,-91.5001 861.4168,-95 871.4168,-98.5001 871.4169,-91.5001"/>
</g>
<!-- WeatherCardComponent -->
<g id="node9" class="node">
<title>WeatherCardComponent</title>
<polygon fill="#ffffb3" stroke="#000000" points="714.9538,-122 559.0462,-122 559.0462,-86 714.9538,-86 714.9538,-122"/>
<text text-anchor="middle" x="637" y="-99.8" font-family="Times,serif" font-size="14.00" fill="#000000">WeatherCardComponent</text>
</g>
<!-- WeatherCardComponent&#45;&gt;WeatherModule -->
<g id="edge8" class="edge">
<title>WeatherCardComponent&#45;&gt;WeatherModule</title>
<path fill="none" stroke="#000000" d="M715.0781,-104C738.7694,-104 758.6546,-104 758.6546,-104 758.6546,-104 758.6546,-151.9891 758.6546,-151.9891"/>
<polygon fill="#000000" stroke="#000000" points="755.1547,-151.989 758.6546,-161.9891 762.1547,-151.9891 755.1547,-151.989"/>
</g>
<!-- WeatherHistoryComponent -->
<g id="node10" class="node">
<title>WeatherHistoryComponent</title>
<polygon fill="#ffffb3" stroke="#000000" points="541.2352,-122 370.7648,-122 370.7648,-86 541.2352,-86 541.2352,-122"/>
<text text-anchor="middle" x="456" y="-99.8" font-family="Times,serif" font-size="14.00" fill="#000000">WeatherHistoryComponent</text>
</g>
<!-- WeatherHistoryComponent&#45;&gt;WeatherModule -->
<g id="edge9" class="edge">
<title>WeatherHistoryComponent&#45;&gt;WeatherModule</title>
<path fill="none" stroke="#000000" d="M456,-122.308C456,-142.1455 456,-171 456,-171 456,-171 744.5388,-171 744.5388,-171"/>
<polygon fill="#000000" stroke="#000000" points="744.5388,-174.5001 754.5388,-171 744.5387,-167.5001 744.5388,-174.5001"/>
</g>
<!-- WeatherListComponent -->
<g id="node11" class="node">
<title>WeatherListComponent</title>
<polygon fill="#ffffb3" stroke="#000000" points="352.0212,-122 201.9788,-122 201.9788,-86 352.0212,-86 352.0212,-122"/>
<text text-anchor="middle" x="277" y="-99.8" font-family="Times,serif" font-size="14.00" fill="#000000">WeatherListComponent</text>
</g>
<!-- WeatherListComponent&#45;&gt;WeatherModule -->
<g id="edge10" class="edge">
<title>WeatherListComponent&#45;&gt;WeatherModule</title>
<path fill="none" stroke="#000000" d="M277,-122.0109C277,-144.4852 277,-180 277,-180 277,-180 744.1627,-180 744.1627,-180"/>
<polygon fill="#000000" stroke="#000000" points="744.1627,-183.5001 754.1627,-180 744.1627,-176.5001 744.1627,-183.5001"/>
</g>
</g>
</svg>
